# xmcd
#
# Track frame offsets: 
#        150
#        17928
#        31230
#        46738
#        62050
#        80296
#        96125
#        115122
#        133173
#        151635
#        167930
#        183344
#        199674
#        215268
#        232135
#
# Disc length: 3379 seconds
#
# Revision: 0
# Processed by: cddbd v1.5.2PL0 Copyright (c) Steve Scherf et al.
# Submitted via: ExactAudioCopy v0.95b4
#
DISCID=c10d310f
DTITLE=Taylor Swift - Taylor Swift
DYEAR=2007
DGENRE=Country
TTITLE0=Tim McGraw
TTITLE1=Picture to Burn
TTITLE2=Teardrops on My Guitar
TTITLE3=A Place in This World
TTITLE4=Cold As You Are
TTITLE5=The Outside
TTITLE6=Tied Together With a Smile
TTITLE7=Stay Beautiful
TTITLE8=Should've Said No
TTITLE9=Mary's Song (Oh My My My)
TTITLE10=Our Song
TTITLE11=I'm Only Me When I'm With You
TTITLE12=Invisible
TTITLE13=A Perfectly Good Heart
TTITLE14=Taylor's 1st Phone Call With Tim McGraw
EXTD=
EXTT0=
EXTT1=
EXTT2=
EXTT3=
EXTT4=
EXTT5=
EXTT6=
EXTT7=
EXTT8=
EXTT9=
EXTT10=
EXTT11=
EXTT12=
EXTT13=
EXTT14=
PLAYORDER=
